PathFileType	4	(X/Y/Z)	 s03c0201.trc
DataRate	CameraRate	NumFrames	NumMarkers	Units	OrigDataRate	OrigDataStartFrame	OrigNumFrames
200	200	4	52	mm	200	1251	2000
Frame#	Time	racr			lacr			c7			jug			rlel			rdr			llel			ldr			s2			lic			ric			lasi			rasi			rpsi			lpsi			rgt			lgt			rth1			rth2			rth3			rth4			rlfc			rmfc			rsh1			rsh2			rsh3			rsh4			rlmal			rmmal			rcal			rtoe			rmt5			rmt1			lth1			lth2			lth4			lth3			llfc			lmfc			lsh1			lsh2			lsh3			lsh4			llmal			lmmal			lcal			ltoe			lmt1			lmt5			SBIKE			LBIKE			RBIKE			
		X1	Y1	Z1	X2	Y2	Z2	X3	Y3	Z3	X4	Y4	Z4	X5	Y5	Z5	X6	Y6	Z6	X7	Y7	Z7	X8	Y8	Z8	X9	Y9	Z9	X10	Y10	Z10	X11	Y11	Z11	X12	Y12	Z12	X13	Y13	Z13	X14	Y14	Z14	X15	Y15	Z15	X16	Y16	Z16	X17	Y17	Z17	X18	Y18	Z18	X19	Y19	Z19	X20	Y20	Z20	X21	Y21	Z21	X22	Y22	Z22	X23	Y23	Z23	X24	Y24	Z24	X25	Y25	Z25	X26	Y26	Z26	X27	Y27	Z27	X28	Y28	Z28	X29	Y29	Z29	X30	Y30	Z30	X31	Y31	Z31	X32	Y32	Z32	X33	Y33	Z33	X34	Y34	Z34	X35	Y35	Z35	X36	Y36	Z36	X37	Y37	Z37	X38	Y38	Z38	X39	Y39	Z39	X40	Y40	Z40	X41	Y41	Z41	X42	Y42	Z42	X43	Y43	Z43	X44	Y44	Z44	X45	Y45	Z45	X46	Y46	Z46	X47	Y47	Z47	X48	Y48	Z48	X49	Y49	Z49	X50	Y50	Z50	X51	Y51	Z51	X52	Y52	Z52	
1251	6.2550	498.456213	1408.088464	-111.597837	420.311795	1419.088656	-413.879955	392.384899	1496.546903	-244.050198	408.545407	1324.777936	-252.311677	548.939126	1193.798094	73.970456	735.929450	993.476086	-18.209627	487.735644	1173.247680	-525.737064	728.675445	986.734710	-446.276249	-111.345295	1199.586002	-172.349835	27.624868	1259.215201	-364.585157	67.866557	1234.534267	-1.173777	66.334224	1192.984685	-327.126936	95.001251	1168.701020	-49.145302	-84.511583	1248.705970	-124.333099	-90.297091	1257.074070	-206.041116	4.397770	1104.370082	3.716943	10.646565	1179.438482	-388.476944	85.281180	958.607569	16.319827	155.644774	903.679094	19.621588	191.610151	826.028752	8.760016	184.931184	926.128011	14.120535	249.772375	713.033064	-25.601357	262.533242	704.491659	-144.174112	187.658561	557.619616	-8.750721	178.924482	470.764648	-28.575801	127.738279	399.258960	-35.557795	207.493662	464.118572	-52.539850	72.473969	280.270941	-66.483632	107.103959	289.438748	-144.039870	8.264728	251.087428	-108.836787	306.421310	165.116380	-103.793462	184.457880	175.165585	-37.473572	219.505483	190.261507	-149.063034	138.804161	1115.946686	-418.030857	224.762295	1111.720128	-423.676967	236.851203	1143.740472	-408.940140	299.559108	1062.918602	-430.931828	432.414175	1025.649036	-420.108261	442.164808	1004.616021	-287.393413	351.334471	872.756821	-435.400455	333.672082	790.679104	-417.928218	273.344587	723.470993	-413.014001	363.686286	777.392969	-396.595936	210.154026	613.029917	-394.824782	246.376662	620.074040	-306.747752	137.045671	578.787318	-347.062690	435.082785	496.300690	-350.380754	339.389062	507.427130	-307.259356	313.373698	504.993512	-420.598006	-211.936163	946.898070	-224.362052	-4.588202	84.881017	-432.688253	-8.924161	80.932543	-32.314126	
1252	6.2600	499.346521	1406.637421	-113.520344	418.723594	1418.696603	-414.941732	392.475400	1495.696879	-244.926237	408.097864	1323.910912	-253.716873	550.051907	1194.147095	74.257197	736.030122	993.430735	-18.122632	487.028625	1173.090294	-525.148888	728.163363	986.922162	-445.902226	-111.764909	1200.286849	-171.119250	26.051045	1260.687148	-363.831739	68.130506	1234.378511	-0.502547	65.036368	1193.426572	-326.479498	94.465256	1168.274502	-48.473880	-84.467204	1249.431940	-123.260090	-90.381282	1257.829682	-204.734670	4.552767	1104.600798	4.274590	9.271825	1179.459449	-387.796129	86.902524	959.611375	16.338312	158.022557	905.629575	19.301031	194.959647	828.428815	8.713704	186.918155	928.398347	13.606461	254.129239	715.853350	-25.310787	266.118361	707.280487	-143.986026	188.800839	561.768113	-8.460287	177.794876	475.181397	-28.640451	124.902588	404.921065	-35.404533	205.960716	467.941817	-52.898031	66.328861	287.626204	-66.520494	101.214798	296.015430	-144.307683	1.468493	259.922224	-109.145381	297.434898	166.634115	-103.758717	175.687345	179.862463	-37.974774	211.308764	194.033420	-149.332837	137.522637	1114.556787	-417.522248	223.450742	1109.649535	-423.056051	235.774643	1141.710943	-408.618652	297.909774	1060.356139	-430.027450	430.989106	1022.183296	-418.855703	439.239323	1001.307028	-285.967052	351.904158	868.075658	-434.577335	335.519994	785.581848	-417.567457	276.215133	717.547684	-413.101615	365.780759	772.688947	-396.389262	215.198703	605.129775	-395.376121	250.987046	613.032901	-306.978177	142.599000	568.499013	-347.629347	443.731875	496.543180	-350.892170	347.027236	504.212845	-307.488293	321.645456	500.404434	-420.932194	-211.946143	946.911477	-224.208790	-4.591158	84.928138	-432.650590	-8.899034	80.943145	-32.291704	
1253	6.2650	500.197662	1405.129108	-115.337142	417.215083	1418.348458	-415.719144	392.587595	1494.782251	-245.542835	407.719147	1322.992709	-254.972069	551.090370	1194.207845	74.564397	736.139516	993.317670	-18.291447	486.366240	1172.962622	-524.488986	727.595074	987.192031	-445.449529	-112.234859	1200.846789	-169.843254	24.597839	1262.018350	-363.077193	68.308838	1234.108374	-0.085572	63.741125	1193.727063	-325.881577	93.948770	1168.084109	-48.044602	-84.616000	1249.951275	-122.151303	-90.434863	1258.415562	-203.370916	4.687563	1104.745164	4.924867	7.906436	1179.134949	-387.192112	89.009409	960.473718	15.779151	160.539475	907.829468	18.835099	198.449115	831.130074	8.462505	189.045381	930.929512	12.875054	258.615838	719.062995	-24.960988	270.000233	710.516842	-143.968662	190.246265	566.252253	-8.310558	177.343000	480.134680	-28.529896	122.361228	411.095825	-35.254284	205.082626	472.436785	-53.135988	60.616942	295.577655	-66.680420	95.640575	303.124672	-144.461375	-4.891574	269.407477	-109.446707	288.661997	168.443316	-103.714484	167.313911	185.191275	-38.258126	203.433082	198.229164	-149.664597	136.224443	1112.433724	-417.170886	222.147015	1106.778671	-422.660343	234.666862	1138.884175	-408.473963	296.176992	1056.838219	-429.335208	429.266700	1017.436805	-418.227609	436.789413	996.958917	-285.194278	352.083226	862.268929	-433.966899	337.026451	779.422212	-417.388914	278.730776	710.529286	-413.252651	367.268619	767.339647	-397.612261	220.218528	596.322337	-396.150647	255.408798	604.988688	-307.369181	148.206481	557.223503	-348.338453	452.635806	496.160565	-349.755180	354.354748	500.325367	-307.767464	329.937515	494.671507	-420.514665	-212.009099	946.934371	-224.124835	-4.587857	84.978766	-432.613557	-8.901098	80.932371	-32.259230	
1254	6.2700	501.039888	1403.621953	-116.830549	415.852204	1418.071567	-416.328318	392.687982	1493.969669	-245.947046	407.333817	1322.183376	-256.059376	552.027157	1194.283397	74.901721	736.315764	993.149279	-18.114534	485.743007	1172.938692	-523.870244	727.042948	987.413393	-445.061544	-112.607285	1201.406584	-168.780352	23.387220	1263.225698	-362.389121	68.787628	1233.734852	0.302094	62.473107	1193.893370	-325.372995	93.390769	1168.034725	-47.872823	-84.739140	1250.368553	-121.094776	-90.489617	1258.803306	-201.982043	4.815463	1104.833544	5.550711	6.583150	1178.437031	-386.573710	90.838349	961.829637	15.701093	163.181337	910.299289	18.305004	202.223540	834.113527	8.098663	191.285941	933.714111	12.094560	263.204761	722.643116	-24.585503	274.239385	714.147558	-144.021030	191.955066	571.038507	-8.292338	176.865929	485.433858	-28.712730	120.196545	417.677212	-35.300882	204.221440	477.119518	-53.545544	55.334613	303.946470	-66.804875	90.608941	310.618690	-144.808851	-10.883405	279.488046	-109.856119	280.156932	170.911638	-103.690552	159.358603	191.204736	-38.477818	195.920574	203.034631	-149.742101	134.909936	1109.691631	-416.999759	220.756249	1103.128165	-422.542894	233.605081	1135.261651	-408.753377	294.318277	1052.489914	-428.888583	426.990173	1011.605582	-418.009646	434.239176	991.302723	-284.864546	351.519268	855.697903	-434.696723	338.634275	772.938550	-419.492550	281.019605	702.228122	-413.508386	368.582290	760.368787	-397.406882	224.888813	586.458956	-396.896200	259.511778	596.236856	-307.794508	153.510682	545.203216	-349.179572	459.217350	494.732786	-351.056188	361.352325	495.774639	-308.095497	337.655581	488.586454	-420.979068	-211.995385	946.941695	-223.998821	-4.396615	85.068643	-432.795764	-8.881741	80.935256	-32.225976	
